# xmcd
#
# Track frame offsets:
#	150
#	9076
#	23544
#	33760
#	45543
#	57619
#	69661
#	80829
#	90730
#	103143
#	114251
#	126784
#
# Disc length: 1848 seconds
#
# Revision: 6
# Processed by: cddbd v1.5.2PL0 Copyright (c) Steve Scherf et al.
# Submitted via: EasyCDDAExtractor 8.2.3.1
#
DISCID=9107360c
DTITLE=Chet Atkins - Picks On The Beatles
DYEAR=1966
DGENRE=Country
TTITLE0=I Feel Fine
TTITLE1=Yesterday
TTITLE2=If I Fell
TTITLE3=Can't Buy Me Love
TTITLE4=I'll Cry Instead
TTITLE5=Things We Said Today
TTITLE6=Hard Day's Night
TTITLE7=I'll Follow The Sun
TTITLE8=She's A Woman
TTITLE9=And I Love Her
TTITLE10=Michelle
TTITLE11=She Loves You
EXTD=Chet Atkins' guitar work on classic Beatle's tunes. YEAR: 1996
EXTT0=
EXTT1=
EXTT2=
EXTT3=
EXTT4=
EXTT5=
EXTT6=
EXTT7=
EXTT8=
EXTT9=
EXTT10=
EXTT11=
PLAYORDER=
